<?xml version="1.0" encoding="UTF-8"?>
<svg width="500" height="500" version="1.1" viewBox="0 0 500.00001 500.00001" xmlns="http://www.w3.org/2000/svg">
 <g transform="translate(0 -552.36)">
  <rect y="552.36" width="500" height="500" ry="23.273" fill-opacity="0"/>
 </g>
 <g transform="matrix(3.7902 0 0 3.7902 -2360.2 -1758.3)">
  <path d="m688.66 486.55c-7.915 0-14.385 6.4698-14.385 14.385 0 7.915 6.4698 14.385 14.385 14.385 7.915 0 14.385-6.4698 14.385-14.385 0-7.915-6.4698-14.385-14.385-14.385zm0 5c5.2128 0 9.3848 4.172 9.3848 9.3848s-4.172 9.3848-9.3848 9.3848-9.3848-4.172-9.3848-9.3848 4.172-9.3848 9.3848-9.3848z" color="#000000" color-rendering="auto" fill="#3e3e3e" image-rendering="auto" shape-rendering="auto" solid-color="#000000" style="block-progression:tb;isolation:auto;mix-blend-mode:normal;text-decoration-color:#000000;text-decoration-line:none;text-decoration-style:solid;text-indent:0;text-transform:none;white-space:normal"/>
  <rect x="637.18" y="500.93" width="102.97" height="72.262" ry="5.8233" fill="#4a4953"/>
  <rect x="631.95" y="496.85" width="113.43" height="8.1744" ry="0" fill="#34343b"/>
  <path d="m688.66 486.55v5c3.742 0 6.9382 2.1554 8.4492 5.2969h-8.4492v76.35h45.66c3.2261 0 5.8223-2.5981 5.8223-5.8242v-60.613c0-0.60489-0.0901-1.1886-0.25976-1.7363h5.4922v-8.1758h-42.932c-1.7718-5.9375-7.2877-10.297-13.783-10.297z" color="#000000" color-rendering="auto" fill-opacity=".11165" image-rendering="auto" shape-rendering="auto" solid-color="#000000" style="block-progression:tb;isolation:auto;mix-blend-mode:normal;text-decoration-color:#000000;text-decoration-line:none;text-decoration-style:solid;text-indent:0;text-transform:none;white-space:normal"/>
 </g>
</svg>
